<svg xmlns="http://www.w3.org/2000/svg" viewBox="0 0 335.78 131.04">
  <defs>
    <style>
      .cls-1, .cls-2 {
        fill: #fff;
      }

      .cls-1 {
        fill-rule: evenodd;
      }
    </style>
  </defs>
  <title>Ресурс 2</title>
  <g id="Слой_2" data-name="Слой 2">
    <g id="Layer_2" data-name="Layer 2">
      <path class="cls-1" d="M40.8,78.39c-1.84-10.6-24.1-8.62-35-7.65a49.05,49.05,0,0,1-.15-9.52c.36-2.52,3-1.43,4.35-.9a15.47,15.47,0,0,0,14.62-.6c11.1-6.27,10.15-22.75,2.33-28-.08,0,1.92-1.8,2.85-2.7,2.32-2.25,4.69,1.88,5.51,3.86,1-.9,1.57-1.19,1.8-1.5.44-5.19-3.47-8.23-5.4-7.65a61.42,61.42,0,0,0-7.8,5.85c-3.09-2.1-10-3-13.35-1.5,1.82-10.2,8.6-20.57,12-24.82L18.9,0C-6.76,29.27-5.59,97.72,18.15,131c1.13-.82,4.05-2.85,3.83-2.85S10.8,110,9.23,95.34C29.4,96,42.75,89.64,40.8,78.39ZM15.86,30.9c5.39,0,9.76,6.09,9.76,13.6s-4.37,13.6-9.76,13.6S6.11,52,6.11,44.5,10.48,30.9,15.86,30.9ZM6.45,86c-.59-4.86,5.36-10,13.26-11.55s14.79,1.21,15.38,6.06S29.73,90.52,21.83,92,7,90.83,6.45,86ZM80.88,41.12C70.43,41.12,62,50.37,62,61.76a21,21,0,0,0,9.14,17.63H57.77c-2.42,0-5.19-.55-5.44-2.74V19c-2.85,2.78-9.35,1.63-13.48,1.78v2.48c5.7.3,6.74,2.66,6.94,3.88,0,15.58,0,46.58,0,49.31,0,2.93-3,2.93-4.76,2.91l-.06,3H57.73c7.4,0,21.89,0,22.2,0a6.7,6.7,0,0,0,1.06,0c10.41-.07,18.83-9.27,18.83-20.62A21.26,21.26,0,0,0,92.3,45.32c.84,0,2.78.09,7.15,0a8.47,8.47,0,0,1,8.25,4.87l14.1,32.2h2.78l11.85-24.62,10,24.62h2.18l14-32.12c1.41-3.5,2.5-4.47,3.3-4.95h15.38l-.08-4.2H151.8v4.2c7.9,0,7.52,3.09,6.83,5.63l-11.1,23.69c-2.68-6.44-7.35-19.55-8.1-21.74-.83-2.41-1.43-3.31-1.05-5.56s4.8-2.1,6.9-2v-4.2H125v4.2c4.42,0,6.17,1.53,6.54,2.08a8.92,8.92,0,0,1,2.68,5.42l-11,21.6C119.45,66.27,112,50,111.9,47.72s3.53-2.35,5.4-2.4v-4.2H82M93,61.83C93,71.91,88,80.3,80.75,80.3S68.44,71.75,68.44,61.67s5.05-17.88,12.31-17.88S93,51.75,93,61.83Z"/>
      <path class="cls-1" d="M199.53,41.37a17,17,0,0,0-12,5.07l0-27.44c-2.85,2.79-9.28,1.64-13.4,1.79v2.5c5.7.3,6.73,2.67,6.93,3.91,0,15.69,0,46.93,0,49.69v5.44c2.28.45,4.91-1.51,6-5.74a17.13,17.13,0,0,0,12.45,5.55c10,0,18.2-9.13,18.2-20.39a21.19,21.19,0,0,0-7.48-16.44,28.3,28.3,0,0,1,9.24,0,8.93,8.93,0,0,1,7,5.43l14.74,28.64c-3.41,7.18-8.18,16.93-13.13,17.38-2.47-.08-5.1-2-4.12-4a2.64,2.64,0,0,0,3.82-2.47c.22-.75-1.42-5-6.11-2.52-5.14,4.24-.34,13.32,7.35,12,7.16-1.08,11.89-12.27,14.55-17.41L256.39,54.5c3.34-8.13,6.26-9.18,10.35-9.18h9.32c0,15.64,0,22.89,0,25.63-.32,8.44,4.89,11.44,9.32,11.44,3.44.1,6.23-.52,8.25-3,2.6-3.83,2.72-7.24,2-9.68-.21-.79-1.33-.49-1.41.3-.61,7.74-4.86,8-8.06,7.74-2.84-.57-4.13-2.06-4.36-5.73V45.32h26a21.34,21.34,0,0,0-7,16.25c.16,11.65,6.39,20.5,18.22,20.82,5.82,0,13.5-3,16.74-9,0-.82-1-.7-1.74.19-4.28,5.21-10.36,5.92-14.76,5.85-7.26,0-13.62-8-12.76-17.65h29.26c.38-12.3-6.32-20.62-16.77-20.62H281.84V23.51h-1.5c.19,8.44-6.33,17.82-13.44,17.61H250.54l.19,4.2c4.85-.09,3.76,3.31,3.22,5l-9.6,21-11.1-21.6c-1.65-4.42,1.79-4.46,3.49-4.42l-.15-4.2-35.72.29M199.4,79.33c-7,0-11.08-7.7-11.08-17.65s4.11-16.93,11.08-16.93,11.06,7.12,11.06,17.08S206.37,79.33,199.4,79.33ZM318.85,43.76c6.45,0,10.77,6.13,11.74,14.53H306.71C307.84,50.21,312.56,43.76,318.85,43.76Z"/>
      <circle class="cls-2" cx="243.62" cy="42.94" r="7.59"/>
    </g>
  </g>
</svg>
