<svg width="336" height="131" xmlns="http://www.w3.org/2000/svg" xmlns:xlink="http://www.w3.org/1999/xlink" xml:space="preserve" overflow="hidden"><defs><clipPath id="clip0"><rect x="472" y="294" width="336" height="131"/></clipPath><clipPath id="clip1"><rect x="472" y="295" width="336" height="130"/></clipPath><clipPath id="clip2"><rect x="472" y="295" width="336" height="130"/></clipPath><clipPath id="clip3"><rect x="472" y="295" width="336" height="130"/></clipPath></defs><g clip-path="url(#clip0)" transform="translate(-472 -294)"><g clip-path="url(#clip1)"><g clip-path="url(#clip2)"><g clip-path="url(#clip3)"><path d="M328.214 58.0754C327.222 49.7421 322.966 43.6607 316.567 43.6607 310.327 43.6607 305.655 50.0595 304.524 58.0754ZM198.194 81.7361C193.492 81.6908 189.02 79.697 185.843 76.2302 184.722 80.4266 182.123 82.371 179.891 81.9246L179.891 76.5278C179.891 74.6528 179.891 59.5436 179.891 45.2083L180.129 45.2083 180.05 41.0417 179.891 41.0417C179.891 35.9325 179.891 31.121 179.891 27.2321 179.692 26.002 178.671 23.6508 173.016 23.3532L173.016 20.8333C177.103 20.6845 183.482 21.8254 186.31 19.0575L186.31 46.2798C189.452 43.0889 193.735 41.2794 198.214 41.25L199.544 41.25 234.643 40.9623C234.499 41.5534 234.426 42.1595 234.425 42.7679 234.423 43.5668 234.55 44.3608 234.802 45.119 233.046 45.119 230.129 45.3968 231.667 49.5139L242.679 70.9425 252.202 50.1091C252.738 48.4226 253.81 45.0893 249.107 45.1488 249.359 44.3872 249.486 43.5899 249.484 42.7877 249.485 42.1786 249.408 41.5719 249.256 40.9821L265.04 40.9821C272.093 41.1905 278.561 31.8849 278.373 23.5119L279.861 23.5119 279.861 41.0417 316.726 41.0417C327.093 41.0417 333.74 49.2956 333.363 61.498L304.315 61.498C303.462 71.121 309.772 79.0079 316.974 79.0079 321.339 79.0774 327.371 78.373 331.617 73.2044 332.341 72.3214 333.343 72.2123 333.343 73.0159 330.129 78.9682 322.51 81.9444 316.736 81.9444 305 81.627 298.819 72.8472 298.661 61.2897 298.531 55.1638 301.064 49.2827 305.605 45.1686L279.811 45.1686 279.811 71.6567C280.04 75.2976 281.319 76.7758 284.137 77.3413 287.311 77.5893 291.528 77.3413 292.133 69.6627 292.212 68.879 293.323 68.5813 293.532 69.3651 294.196 71.7857 294.077 75.1686 291.498 78.9682 289.514 81.4286 286.726 82.0436 283.313 81.9444 278.919 81.9444 273.75 78.9682 274.067 70.5952 274.067 67.877 274.067 60.6746 274.067 45.1686L264.881 45.1686C260.823 45.1686 257.936 46.1607 254.613 54.2758L241.954 81.9841C239.315 87.0833 234.623 98.1845 227.52 99.256 219.891 100.565 215.129 91.5575 220.228 87.3512 224.881 84.8611 226.508 89.1071 226.29 89.8512 226.327 91.2971 225.186 92.4999 223.74 92.5376 223.311 92.5488 222.884 92.4542 222.5 92.2619 221.508 94.246 224.137 96.131 226.587 96.2302 231.498 95.7837 236.23 86.1111 239.613 78.9881L224.99 50.5952C223.783 47.6831 221.12 45.6317 217.996 45.2083 214.961 44.7084 211.864 44.7084 208.829 45.2083 213.615 49.2605 216.344 55.2372 216.27 61.5079 216.27 72.6786 208.155 81.7361 198.194 81.7361ZM198.065 78.9484C205.01 78.9484 209.038 71.4583 209.038 61.5873 209.038 51.7163 204.98 44.6429 198.065 44.6429 191.151 44.6429 187.073 51.5873 187.073 61.4385 187.073 71.2897 191.151 78.9484 198.065 78.9484Z" fill="#FE6A00" fill-rule="nonzero" fill-opacity="1" transform="matrix(1.00769 0 0 1 471.911 294.752)"/><path d="M249.236 41.0417C249.388 41.6314 249.465 42.2381 249.464 42.8472 249.466 43.6494 249.339 44.4467 249.087 45.2083L249.008 45.2083 248.819 41.0417Z" fill="#FE6A00" fill-rule="nonzero" fill-opacity="1" transform="matrix(1.00769 0 0 1 471.911 294.752)"/><path d="M249.236 41.0417 248.8 41.0417 248.988 45.2083 249.087 45.2083C247.788 49.1587 243.532 51.3077 239.582 50.0084 237.311 49.2613 235.529 47.4798 234.782 45.2083L235.119 45.2083 234.97 41.0417 234.633 41.0417C235.638 37.0063 239.724 34.5499 243.759 35.555 246.462 36.2282 248.572 38.3387 249.246 41.0417Z" fill="#FE6A00" fill-rule="nonzero" fill-opacity="1" transform="matrix(1.00769 0 0 1 471.911 294.752)"/><path d="M234.96 41.0417 235.109 45.2083 234.782 45.2083C234.53 44.4501 234.403 43.656 234.405 42.8571 234.406 42.2488 234.479 41.6427 234.623 41.0516Z" fill="#FE6A00" fill-rule="nonzero" fill-opacity="1" transform="matrix(1.00769 0 0 1 471.911 294.752)"/><path d="M180.01 41.0417 180.089 45.2083 179.851 45.2083 179.851 41.0417Z" fill="#FE6A00" fill-rule="nonzero" fill-opacity="1" transform="matrix(1.00769 0 0 1 471.911 294.752)"/><path d="M81.5774 41.0417 116.617 41.0417 116.617 45.2083C114.762 45.2083 111.121 45.3571 111.26 47.5893 111.399 49.8214 118.75 65.9921 122.5 74.0774L133.413 52.6488C133.18 50.6016 132.239 48.7 130.754 47.2718 130.387 46.7262 128.651 45.2083 124.266 45.2083L124.266 41.0417 144.355 41.0417 144.355 45.2083C142.272 45.129 137.877 44.9901 137.51 47.1925 137.143 49.3948 137.728 50.3175 138.502 52.7083 139.246 54.881 143.879 67.8869 146.538 74.2758L157.55 50.7738C158.234 48.254 158.611 45.1885 150.774 45.1885L150.774 41.0218 179.782 41.0218 179.782 45.1885 164.831 45.1885C164.038 45.6647 162.956 46.627 161.558 50.1488L147.669 82.0139 145.506 82.0139 135.595 57.5397 123.839 81.9841 121.081 81.9841 107.143 50.0397C105.675 46.8929 102.423 44.973 98.9583 45.2083 94.6131 45.2976 92.6885 45.2083 91.8651 45.2083 96.6334 49.2713 99.3492 55.2437 99.2758 61.5079 99.2758 72.5893 91.1806 81.6171 81.0814 81.9444L81.0218 79.8809C87.8571 79.375 92.5496 71.2698 92.5496 61.5774 92.5496 51.5774 87.5893 43.7202 80.3571 43.7202L80.2778 41.0813 81.5774 41.0813Z" fill="#FE6A00" fill-rule="nonzero" fill-opacity="1" transform="matrix(1.00769 0 0 1 471.911 294.752)"/><path d="M80.3571 79.9107 81.0218 79.9107 81.0814 81.9742C80.9194 81.9841 80.7571 81.9841 80.5952 81.9742 80.2452 82.0011 79.8936 82.0011 79.5436 81.9742L70.7738 81.9742 70.7738 78.998C65.0116 75.0556 61.6072 68.489 61.7063 61.5079 61.7063 50.2877 70.0099 41.1607 80.2778 41.0417L80.3571 43.6508C73.1548 43.6508 68.1448 51.3988 68.1448 61.3889 68.1448 71.379 73.1548 79.9107 80.3571 79.9107Z" fill="#FE6A00" fill-rule="nonzero" fill-opacity="1" transform="matrix(1.00769 0 0 1 471.911 294.752)"/><path d="M38.7897 20.8333C42.8869 20.6845 49.3353 21.8254 52.1627 19.0675L52.1627 76.2897C52.4107 78.4623 55.1389 78.998 57.5595 79.0079 57.7282 79.0079 67.8175 79.0079 70.7738 79.0079L70.7738 81.9841 40.8929 81.9841 40.9524 79.0079C42.7381 79.0079 45.6746 79.0079 45.6746 76.121 45.6349 73.4127 45.6349 42.6587 45.6349 27.1825 45.4365 25.9722 44.4048 23.631 38.75 23.3333Z" fill="#FE6A00" fill-rule="nonzero" fill-opacity="1" transform="matrix(1.00769 0 0 1 471.911 294.752)"/><path d="M40.7242 78.0159C42.7083 89.1766 29.4147 95.5059 9.40476 94.881 10.9623 109.464 21.8254 127.47 22.0536 127.47 22.2817 127.47 19.375 129.454 18.254 130.298-5.29762 97.2222-6.45833 29.2857 18.998 0.248016L22.6091 3.50198C19.2361 7.71825 12.5099 18.006 10.7044 28.125 14.0377 26.6171 20.8829 27.5298 23.9484 29.6131 26.3698 27.4765 28.9573 25.5358 31.6865 23.8095 33.6012 23.2341 37.4802 26.25 37.0437 31.3988 36.8155 31.7063 36.2897 31.994 35.2579 32.8869 34.4444 30.9028 32.0933 26.8254 29.7917 29.0575 28.8889 29.9306 26.9643 31.6667 26.9643 31.7361 34.7222 36.9246 35.7143 53.2738 24.6528 59.5238 20.2235 62.1407 14.7777 62.3641 10.1488 60.119 8.75992 59.5933 6.18056 58.5119 5.83333 61.0119 5.56802 64.1499 5.60789 67.3063 5.95238 70.4365 16.8651 69.4444 38.8988 67.4603 40.7242 78.0159ZM21.875 91.5575C29.7619 90.0496 35.6349 84.9206 35.0595 80.0992 34.4841 75.2778 27.6389 72.5893 19.8413 74.0873 12.0437 75.5853 6.06151 80.7242 6.64682 85.5456 7.23214 90.3671 14.0575 93.0556 21.9048 91.5575ZM25.6349 44.3948C25.6349 36.9444 21.2996 30.9028 15.9524 30.9028 10.6052 30.9028 6.27976 36.9444 6.27976 44.3948 6.27976 51.8452 10.6151 57.8869 15.9524 57.8869 21.2897 57.8869 25.6647 51.8353 25.6647 44.3948Z" fill="#FE6A00" fill-rule="nonzero" fill-opacity="1" transform="matrix(1.00769 0 0 1 471.911 294.752)"/></g></g></g></g></svg>